<?xml version="1.0" encoding="utf-8"?>
<!-- Generator: Adobe Illustrator 29.3.0, SVG Export Plug-In . SVG Version: 9.03 Build 55982)  -->
<svg version="1.0" id="Ebene_1" xmlns="http://www.w3.org/2000/svg" xmlns:xlink="http://www.w3.org/1999/xlink" x="0px" y="0px"
	 viewBox="0 0 1075.5 208.4" style="enable-background:new 0 0 1075.5 208.4;" xml:space="preserve">
<style type="text/css">
	.st0{fill:#FFFFFF;}
	.st1{fill:#F59C00;}
</style>
<g>
	<path class="st0" d="M709.3,130.5c0,0-37,44.1-69.5,44.1c-18.8,0-26.6-16.2-26.6-39v-31.8c5.2-44.8,29.8-70.8,75.3-70.8
		c0,0,13,1.3,20.8,3.9V130.5z M745.7,205.2V9.1c-22.7-9.7-61-9.1-61-9.1c-58.4,0-106.5,37.7-106.5,118.8v20.1
		c0,46.7,22.7,69.5,59.7,69.5c40.3,0,73.4-40.9,73.4-40.9l-0.6,37.7"/>
</g>
<path class="st0" d="M793,2h35.7v37c13-20.1,32.5-38.3,58.4-38.3h15v37H884c-26.6,0-39.6,16.9-55.2,33.1v134.4H793V2z M793,2"/>
<path class="st0" d="M345.7,204.5L282.8,2H323l44.8,148.7L412.6,2h33.8l44.1,150L536,2h40.9l-63.6,202.6h-38.3L429.5,50.6
	l-46.8,153.9H345.7z M345.7,204.5"/>
<path class="st0" d="M1043,85v-5.2c0-30.5-17.5-50.6-47.4-50.6c-33.8,0-46.7,21.4-53.3,50.6L941,85H1043z M905.4,104.5
	c0-69.4,38.3-103.8,91.5-103.8c49.4,0,78.6,32.5,78.6,77.9V111h-135c1.9,46.7,19.5,66.9,64.3,66.9c15.5,0,37.6-8.5,52.6-16.2
	l11.7,24.6c-14.3,10.4-47.4,22.1-68.8,22.1C941.7,208.4,905.4,172.7,905.4,104.5"/>
<g>
	<g>
		<g>
			<g>
				<path class="st1" d="M171.4,1.7L92,2C88.1,2,85,5.1,85,8.9v25.6c0,2.4,1.9,4.3,4.3,4.3l82.8,0.2v0c32.6,2.3,58.2,26.7,58.2,63.6
					c0,36.7-26,62.8-59,64.9l-43.4,0.8c-2.4,0-4.3-1.9-4.3-4.3V68.6c0-2.4-1.9-4.3-4.3-4.3h-30c-2.4,0-4.3,1.9-4.3,4.3v125.2
					c0,6.2,5,11.2,11.3,11.2l75.8-0.3c52.6-0.9,97-40.7,97-101.7C269.1,41.3,224.3,2.2,171.4,1.7z"/>
			</g>
		</g>
	</g>
	<path class="st1" d="M38.6,68.5c0-2.4-1.9-4.3-4.3-4.3h-30c-2.4,0-4.3,1.9-4.3,4.3v132c0,2.4,1.9,4.3,4.3,4.3h30
		c2.4,0,4.3-1.9,4.3-4.3L38.6,68.5z"/>
	<path class="st0" d="M38.6,5.9c0-2.4-1.9-4.3-4.3-4.3h-30C1.9,1.7,0,3.6,0,5.9v29.1c0,2.4,1.9,4.3,4.3,4.3h30
		c2.4,0,4.3-1.9,4.3-4.3L38.6,5.9z"/>
</g>
</svg>
